<svg height="512pt" viewBox="0 0 512.00026 512" width="512pt" xmlns="http://www.w3.org/2000/svg"><path d="m169.949219 327.480469-58.273438 58.273437 50.992188 7.285156 21.851562-21.851562zm0 0" fill="#a3bbc0"/><path d="m140.8125 327.480469-21.851562 21.851562v43.707031l58.273437-58.273437zm0 0" fill="#bddbe0"/><path d="m251.90625 303.800781-43.707031-43.707031-45.53125 89.238281 21.851562 21.855469zm0 0" fill="#8b9ea4"/><path d="m140.808594 327.480469 67.386718-67.386719 21.851563 21.855469-67.382813 67.382812zm0 0" fill="#a3bbc0"/><path d="m457.6875 54.3125-262.242188 262.238281c72.417969 72.417969 189.828126 72.417969 262.242188 0 72.417969-72.414062 72.417969-189.824219 0-262.238281zm0 0" fill="#8b9ea4"/><path d="m457.6875 54.3125c-72.414062-72.417969-189.824219-72.417969-262.242188 0-72.414062 72.414062-72.414062 189.824219 0 262.238281 60.347657 60.347657 167.972657 50.5625 240.390626-21.851562 72.414062-72.414063 82.199218-180.042969 21.851562-240.386719zm0 0" fill="#a3bbc0"/><path d="m140.8125 371.1875-74.984375 45.847656-56.777344 85.914063c12.070313 12.066406 31.640625 12.066406 43.707031 0l109.910157-109.910157zm0 0" fill="#292c32"/><path d="m118.960938 349.332031-109.910157 109.910157c-12.066406 12.070312-12.066406 31.636718 0 43.707031l131.761719-131.761719zm0 0" fill="#41494e"/><path d="m435.835938 76.164062-218.535157 218.535157c60.347657 60.347656 158.1875 60.347656 218.535157 0 60.34375-60.347657 60.34375-158.1875 0-218.535157zm0 0" fill="#d6faff"/><path d="m437.660156 76.164062c-60.347656-60.347656-158.1875-60.347656-218.535156 0-60.347656 60.347657-60.347656 158.1875 0 218.535157 48.277344 48.277343 136.332031 38.492187 196.679688-21.851563 60.347656-60.347656 70.132812-148.40625 21.855468-196.683594zm0 0" fill="#fff"/></svg>